<svg width="24" height="24" viewBox="0 0 24 24" fill="none" xmlns="http://www.w3.org/2000/svg">
<path d="M20.5044 15.7436C19.8926 15.4819 19.3714 15.0458 19.006 14.4896C18.6406 13.9335 18.4471 13.282 18.4497 12.6166C18.4576 12.0226 18.6167 11.4404 18.912 10.9249C19.2072 10.4094 19.6289 9.97766 20.1372 9.6703C20.2522 9.59922 20.3516 9.50556 20.4294 9.39498C20.5072 9.2844 20.5618 9.15919 20.5898 9.02692C20.6178 8.89466 20.6187 8.75808 20.5925 8.62546C20.5662 8.49283 20.5133 8.3669 20.437 8.2553C19.9801 7.59076 19.3843 7.03331 18.6909 6.62141C17.9976 6.20952 17.2231 5.953 16.4209 5.86957C17.1675 4.6847 17.5063 3.28826 17.3858 1.89299C17.3622 1.63963 17.2414 1.40524 17.0488 1.239C16.8562 1.07276 16.6066 0.987601 16.3526 1.00139C14.6355 1.15442 13.0438 1.96428 11.9092 3.26213C11.19 4.09551 10.6824 5.09012 10.4297 6.16154C9.90752 5.98482 9.36082 5.89123 8.80958 5.8842C7.78907 5.91312 6.79334 6.20523 5.91894 6.73221C5.04454 7.25919 4.32114 8.00316 3.81886 8.89199C1.93116 12.1693 3.08595 17.0805 5.13086 20.0365C5.95117 21.2211 7.18213 22.9994 9.03906 22.9994C9.07568 22.9994 9.11279 22.9994 9.1499 22.9974C9.77208 22.9621 10.3812 22.8045 10.9424 22.5335C11.3906 22.3063 11.8852 22.1854 12.3877 22.18C12.8603 22.1858 13.325 22.3015 13.7451 22.5179C14.359 22.8084 15.028 22.9639 15.707 22.974C17.6201 22.9378 18.75 21.2874 19.5752 20.0814C20.2263 19.1234 20.7358 18.0765 21.0879 16.973C21.1629 16.7322 21.1446 16.4721 21.0365 16.2442C20.9283 16.0164 20.7384 15.8377 20.5044 15.7436ZM13.4234 4.56781C13.9486 3.9803 14.6067 3.52694 15.3428 3.24555C15.1817 4.03778 14.8254 4.77727 14.3062 5.39691C13.9537 5.81978 13.5249 6.17261 13.042 6.43699L13.0391 6.43799C13.0108 6.44971 12.9824 6.46044 12.9541 6.47217C12.7676 6.5454 12.5371 6.63623 12.3594 6.69482C12.531 5.90814 12.8968 5.17692 13.4234 4.56781ZM17.9248 18.9526C17.1211 20.1264 16.4888 20.9594 15.6704 20.9741C15.2748 20.9728 14.8859 20.8724 14.5391 20.6821C13.8687 20.3554 13.1334 20.1839 12.3877 20.1801C11.6161 20.184 10.8549 20.3591 10.1592 20.6927C9.82093 20.8654 9.45189 20.9696 9.07325 20.9994H9.04347C8.23047 20.9994 7.35597 19.7367 6.7754 18.8978C5.32276 16.7982 3.98292 12.6146 5.55226 9.89002C5.88135 9.30042 6.35725 8.80591 6.93379 8.45447C7.51034 8.10302 8.16794 7.90659 8.84278 7.88422L8.87647 7.88322C9.44575 7.9316 10.0017 8.08211 10.5176 8.32756C10.6489 8.37931 10.7783 8.43107 10.9068 8.47892C10.9395 8.4926 10.9732 8.50529 11.0073 8.51603C11.3632 8.65916 11.7412 8.73945 12.1245 8.75334C12.6673 8.7102 13.1974 8.56753 13.6885 8.33244C14.3808 7.99646 15.1418 7.82628 15.9112 7.83537C16.7342 7.86757 17.5243 8.16721 18.1617 8.68889C17.617 9.19075 17.1833 9.80102 16.8884 10.4805C16.5936 11.1599 16.4442 11.8936 16.4498 12.6342V12.6352C16.4441 13.5318 16.666 14.4152 17.0947 15.2027C17.5234 15.9903 18.1448 16.6562 18.9009 17.1381C18.6376 17.7743 18.3106 18.3823 17.9248 18.9526Z" fill="#26150F"/>
</svg>
