<svg width="32" height="32" viewBox="0 0 32 32" fill="none" xmlns="http://www.w3.org/2000/svg">
<path d="M4.2925 15.2925L13.2925 6.29249C13.4801 6.10485 13.7346 5.99944 14 5.99944C14.2654 5.99944 14.5199 6.10485 14.7075 6.29249C14.8951 6.48013 15.0006 6.73463 15.0006 6.99999C15.0006 7.26536 14.8951 7.51985 14.7075 7.70749L7.41375 15L27 15C27.2652 15 27.5196 15.1053 27.7071 15.2929C27.8946 15.4804 28 15.7348 28 16C28 16.2652 27.8946 16.5196 27.7071 16.7071C27.5196 16.8946 27.2652 17 27 17H7.41375L14.7075 24.2925C14.8951 24.4801 15.0006 24.7346 15.0006 25C15.0006 25.2654 14.8951 25.5199 14.7075 25.7075C14.5199 25.8951 14.2654 26.0005 14 26.0005C13.7346 26.0005 13.4801 25.8951 13.2925 25.7075L4.2925 16.7075C4.19952 16.6146 4.12576 16.5043 4.07544 16.3829C4.02512 16.2615 3.99921 16.1314 3.99921 16C3.99921 15.8686 4.02512 15.7385 4.07544 15.6171C4.12576 15.4957 4.19952 15.3854 4.2925 15.2925Z" fill="#343330"/>
</svg>
