<svg width="22" height="22" viewBox="0 0 22 22" fill="none" xmlns="http://www.w3.org/2000/svg">
<path d="M21.6023 9.00392C21.5606 8.7733 21.4393 8.56464 21.2594 8.41435C21.0796 8.26407 20.8527 8.18171 20.6184 8.18165H11.2C11.0686 8.18162 10.9386 8.20746 10.8172 8.2577C10.6959 8.30795 10.5857 8.38161 10.4928 8.47447C10.3999 8.56734 10.3263 8.67759 10.276 8.79893C10.2258 8.92027 10.1999 9.05032 10.2 9.18165V13.0498C10.1999 13.1811 10.2258 13.3112 10.276 13.4325C10.3263 13.5539 10.3999 13.6641 10.4928 13.757C10.5857 13.8499 10.6959 13.9235 10.8172 13.9738C10.9386 14.024 11.0686 14.0498 11.2 14.0498H15.1624C14.88 14.5264 14.493 14.9324 14.0305 15.2373C13.1854 15.7731 12.2004 16.0464 11.2 16.0225C10.1624 16.0106 9.15505 15.672 8.32096 15.0549C7.48686 14.4377 6.86849 13.5734 6.55373 12.5847L6.55344 12.583C6.20317 11.5564 6.20317 10.4426 6.55344 9.41601L6.55368 9.41436C6.86866 8.42587 7.48712 7.56176 8.3212 6.9448C9.15529 6.32784 10.1626 5.9894 11.2 5.97755C11.7764 5.96432 12.3497 6.06509 12.8871 6.27407C13.4245 6.48305 13.9152 6.79613 14.3313 7.19532C14.5202 7.37588 14.7723 7.47534 15.0337 7.47242C15.295 7.4695 15.5448 7.36444 15.7297 7.1797L18.5979 4.31153C18.6929 4.21664 18.7678 4.10356 18.8182 3.97905C18.8685 3.85455 18.8932 3.72118 18.8908 3.5869C18.8885 3.45263 18.8591 3.32021 18.8044 3.19756C18.7497 3.07491 18.6708 2.96455 18.5725 2.87306C16.5766 1.00177 13.9357 -0.027375 11.2 1.41904e-05C9.15991 -0.00602172 7.15873 0.558026 5.4221 1.62855C3.68547 2.69908 2.28247 4.2335 1.37131 6.05879L1.36984 6.06056C0.59737 7.59232 0.19659 9.2845 0.199972 11C0.202406 12.7149 0.60289 14.4057 1.36989 15.9395L1.37136 15.9412C2.28252 17.7665 3.68551 19.3009 5.42213 20.3715C7.15875 21.442 9.15992 22.006 11.2 22C13.8853 22.068 16.4951 21.1067 18.4947 19.313L18.4954 19.3125L18.4962 19.3117L18.4964 19.3115L18.4964 19.3114C19.5803 18.2688 20.434 17.011 21.003 15.6188C21.5719 14.2266 21.8434 12.7309 21.8001 11.2276C21.8005 10.4819 21.7343 9.73777 21.6023 9.00392ZM11.2 2.00001C13.071 1.9818 14.8979 2.56856 16.4085 3.67286L14.9548 5.12601C13.8526 4.36307 12.5404 3.96172 11.2 3.97755C9.9762 3.98385 8.7762 4.31614 7.7235 4.94024C6.6708 5.56433 5.80343 6.45768 5.21066 7.52833L4.14145 6.69959L3.55645 6.24592C4.36122 4.94377 5.48644 3.86972 6.82461 3.12637C8.16278 2.38303 9.66921 1.99523 11.2 2.00001ZM2.67941 13.9033C2.04009 12.0206 2.04009 9.97945 2.67941 8.09669L4.46164 9.47853C4.23377 10.4797 4.23377 11.5193 4.46164 12.5205L2.67941 13.9033ZM11.2 20C9.66918 20.0048 8.16274 19.6169 6.82455 18.8736C5.48637 18.1302 4.36114 17.0561 3.55637 15.7539L3.93478 15.4604L5.21066 14.4707C5.80317 15.5417 6.67046 16.4353 7.7232 17.0596C8.77593 17.6839 9.97606 18.0163 11.2 18.0225C12.3456 18.0359 13.4783 17.7787 14.5057 17.2717L16.1974 18.585C14.7096 19.5436 12.9695 20.0363 11.2 20ZM17.7259 17.2393L17.5429 17.0973L16.1655 16.028C16.8877 15.2477 17.3731 14.2782 17.5652 13.2325C17.592 13.0881 17.5867 12.9396 17.5497 12.7976C17.5127 12.6555 17.4448 12.5233 17.351 12.4104C17.2571 12.2975 17.1395 12.2067 17.0066 12.1444C16.8736 12.0821 16.7286 12.0498 16.5818 12.0499H12.2V10.1817H19.7488C19.783 10.5274 19.8001 10.877 19.8001 11.2276C19.8585 13.4164 19.1216 15.5522 17.7258 17.2393H17.7259Z" fill="#594020"/>
</svg>
