<svg width="32" height="32" viewBox="0 0 32 32" fill="none" xmlns="http://www.w3.org/2000/svg">
<path d="M27.3538 12.9713L17.3538 3.53626C17.3489 3.532 17.3443 3.5274 17.34 3.52251C16.9718 3.18768 16.492 3.00214 15.9944 3.00214C15.4967 3.00214 15.0169 3.18768 14.6488 3.52251L14.635 3.53626L4.64625 12.9713C4.4425 13.1586 4.27985 13.3862 4.16861 13.6397C4.05737 13.8932 3.99996 14.167 4 14.4438V26C4 26.5304 4.21071 27.0392 4.58579 27.4142C4.96086 27.7893 5.46957 28 6 28H12C12.5304 28 13.0391 27.7893 13.4142 27.4142C13.7893 27.0392 14 26.5304 14 26V20H18V26C18 26.5304 18.2107 27.0392 18.5858 27.4142C18.9609 27.7893 19.4696 28 20 28H26C26.5304 28 27.0391 27.7893 27.4142 27.4142C27.7893 27.0392 28 26.5304 28 26V14.4438C28 14.167 27.9426 13.8932 27.8314 13.6397C27.7201 13.3862 27.5575 13.1586 27.3538 12.9713ZM26 26H20V20C20 19.4696 19.7893 18.9609 19.4142 18.5858C19.0391 18.2107 18.5304 18 18 18H14C13.4696 18 12.9609 18.2107 12.5858 18.5858C12.2107 18.9609 12 19.4696 12 20V26H6V14.4438L6.01375 14.4313L16 5.00001L25.9875 14.4288L26.0012 14.4413L26 26Z" fill="#D9B88F"/>
</svg>
